<mxfile host="app.diagrams.net" modified="2022-09-16T20:50:59.569Z" agent="5.0 (Windows NT 10.0; Win64; x64) AppleWebKit/537.36 (KHTML, like Gecko) Chrome/104.0.5112.102 Safari/537.36 OPR/90.0.4480.100" etag="ppnmicU3Ow_YM5R1GnuO" version="20.3.2" type="github">
  <diagram id="ckr2K2tXOuYEFZyXY6J9" name="Página-1">
    <mxGraphModel dx="1151" dy="694" grid="1" gridSize="10" guides="1" tooltips="1" connect="1" arrows="1" fold="1" page="1" pageScale="1" pageWidth="827" pageHeight="1169" math="0" shadow="0">
      <root>
        <mxCell id="0" />
        <mxCell id="1" parent="0" />
        <mxCell id="dKNvi7SLN0fLF1UKLwEM-1" value="ficha cadastral do cliente" style="rounded=0;whiteSpace=wrap;html=1;" vertex="1" parent="1">
          <mxGeometry x="750" y="270" width="120" height="60" as="geometry" />
        </mxCell>
        <mxCell id="dKNvi7SLN0fLF1UKLwEM-3" value="cnpj" style="ellipse;whiteSpace=wrap;html=1;" vertex="1" parent="1">
          <mxGeometry x="880" y="360" width="40" height="20" as="geometry" />
        </mxCell>
        <mxCell id="dKNvi7SLN0fLF1UKLwEM-20" style="edgeStyle=none;rounded=0;orthogonalLoop=1;jettySize=auto;html=1;exitX=0;exitY=0.5;exitDx=0;exitDy=0;entryX=1;entryY=0.75;entryDx=0;entryDy=0;endArrow=none;endFill=0;" edge="1" parent="1" source="dKNvi7SLN0fLF1UKLwEM-4" target="dKNvi7SLN0fLF1UKLwEM-1">
          <mxGeometry relative="1" as="geometry" />
        </mxCell>
        <mxCell id="dKNvi7SLN0fLF1UKLwEM-4" value="cidade" style="ellipse;whiteSpace=wrap;html=1;" vertex="1" parent="1">
          <mxGeometry x="900" y="320" width="50" height="20" as="geometry" />
        </mxCell>
        <mxCell id="dKNvi7SLN0fLF1UKLwEM-23" style="edgeStyle=none;rounded=0;orthogonalLoop=1;jettySize=auto;html=1;exitX=0;exitY=0.5;exitDx=0;exitDy=0;entryX=1;entryY=0;entryDx=0;entryDy=0;endArrow=none;endFill=0;" edge="1" parent="1" source="dKNvi7SLN0fLF1UKLwEM-5" target="dKNvi7SLN0fLF1UKLwEM-1">
          <mxGeometry relative="1" as="geometry" />
        </mxCell>
        <mxCell id="dKNvi7SLN0fLF1UKLwEM-5" value="endereço" style="ellipse;whiteSpace=wrap;html=1;" vertex="1" parent="1">
          <mxGeometry x="900" y="250" width="70" height="20" as="geometry" />
        </mxCell>
        <mxCell id="dKNvi7SLN0fLF1UKLwEM-19" style="rounded=0;orthogonalLoop=1;jettySize=auto;html=1;exitX=0;exitY=0;exitDx=0;exitDy=0;entryX=1;entryY=1;entryDx=0;entryDy=0;endArrow=none;endFill=0;" edge="1" parent="1" source="dKNvi7SLN0fLF1UKLwEM-6" target="dKNvi7SLN0fLF1UKLwEM-1">
          <mxGeometry relative="1" as="geometry" />
        </mxCell>
        <mxCell id="dKNvi7SLN0fLF1UKLwEM-6" value="nome" style="ellipse;whiteSpace=wrap;html=1;" vertex="1" parent="1">
          <mxGeometry x="890" y="340" width="50" height="20" as="geometry" />
        </mxCell>
        <mxCell id="dKNvi7SLN0fLF1UKLwEM-22" style="edgeStyle=none;rounded=0;orthogonalLoop=1;jettySize=auto;html=1;exitX=0;exitY=0.5;exitDx=0;exitDy=0;entryX=1;entryY=0.25;entryDx=0;entryDy=0;endArrow=none;endFill=0;" edge="1" parent="1" source="dKNvi7SLN0fLF1UKLwEM-8" target="dKNvi7SLN0fLF1UKLwEM-1">
          <mxGeometry relative="1" as="geometry" />
        </mxCell>
        <mxCell id="dKNvi7SLN0fLF1UKLwEM-8" value="estado" style="ellipse;whiteSpace=wrap;html=1;" vertex="1" parent="1">
          <mxGeometry x="905" y="270" width="70" height="20" as="geometry" />
        </mxCell>
        <mxCell id="dKNvi7SLN0fLF1UKLwEM-9" value="cpf&lt;span style=&quot;color: rgba(0, 0, 0, 0); font-family: monospace; font-size: 0px; text-align: start;&quot;&gt;%3CmxGraphModel%3E%3Croot%3E%3CmxCell%20id%3D%220%22%2F%3E%3CmxCell%20id%3D%221%22%20parent%3D%220%22%2F%3E%3CmxCell%20id%3D%222%22%20value%3D%22%22%20style%3D%22ellipse%3BwhiteSpace%3Dwrap%3Bhtml%3D1%3B%22%20vertex%3D%221%22%20parent%3D%221%22%3E%3CmxGeometry%20x%3D%22280%22%20y%3D%22370%22%20width%3D%2270%22%20height%3D%2240%22%20as%3D%22geometry%22%2F%3E%3C%2FmxCell%3E%3C%2Froot%3E%3C%2FmxGraphModel%3E&lt;/span&gt;" style="ellipse;whiteSpace=wrap;html=1;" vertex="1" parent="1">
          <mxGeometry x="870" y="380" width="35" height="20" as="geometry" />
        </mxCell>
        <mxCell id="dKNvi7SLN0fLF1UKLwEM-21" style="edgeStyle=none;rounded=0;orthogonalLoop=1;jettySize=auto;html=1;exitX=0;exitY=0.5;exitDx=0;exitDy=0;entryX=1;entryY=0.5;entryDx=0;entryDy=0;endArrow=none;endFill=0;" edge="1" parent="1" source="dKNvi7SLN0fLF1UKLwEM-11" target="dKNvi7SLN0fLF1UKLwEM-1">
          <mxGeometry relative="1" as="geometry" />
        </mxCell>
        <mxCell id="dKNvi7SLN0fLF1UKLwEM-11" value="pessoa contato" style="ellipse;whiteSpace=wrap;html=1;" vertex="1" parent="1">
          <mxGeometry x="910" y="290" width="70" height="30" as="geometry" />
        </mxCell>
        <mxCell id="dKNvi7SLN0fLF1UKLwEM-24" style="edgeStyle=none;rounded=0;orthogonalLoop=1;jettySize=auto;html=1;exitX=0;exitY=0.5;exitDx=0;exitDy=0;entryX=0.75;entryY=0;entryDx=0;entryDy=0;endArrow=none;endFill=0;" edge="1" parent="1" source="dKNvi7SLN0fLF1UKLwEM-12" target="dKNvi7SLN0fLF1UKLwEM-1">
          <mxGeometry relative="1" as="geometry" />
        </mxCell>
        <mxCell id="dKNvi7SLN0fLF1UKLwEM-12" value="telefone" style="ellipse;whiteSpace=wrap;html=1;" vertex="1" parent="1">
          <mxGeometry x="890" y="230" width="70" height="20" as="geometry" />
        </mxCell>
        <mxCell id="dKNvi7SLN0fLF1UKLwEM-14" style="edgeStyle=orthogonalEdgeStyle;rounded=0;orthogonalLoop=1;jettySize=auto;html=1;exitX=0.5;exitY=1;exitDx=0;exitDy=0;" edge="1" parent="1" source="dKNvi7SLN0fLF1UKLwEM-8" target="dKNvi7SLN0fLF1UKLwEM-8">
          <mxGeometry relative="1" as="geometry" />
        </mxCell>
        <mxCell id="dKNvi7SLN0fLF1UKLwEM-17" value="" style="endArrow=none;html=1;rounded=0;exitX=0.874;exitY=1.002;exitDx=0;exitDy=0;exitPerimeter=0;" edge="1" parent="1" source="dKNvi7SLN0fLF1UKLwEM-1">
          <mxGeometry width="50" height="50" relative="1" as="geometry">
            <mxPoint x="750" y="440" as="sourcePoint" />
            <mxPoint x="890" y="360" as="targetPoint" />
          </mxGeometry>
        </mxCell>
        <mxCell id="dKNvi7SLN0fLF1UKLwEM-18" value="" style="endArrow=none;html=1;rounded=0;entryX=0;entryY=0;entryDx=0;entryDy=0;exitX=0.75;exitY=1;exitDx=0;exitDy=0;" edge="1" parent="1" source="dKNvi7SLN0fLF1UKLwEM-1" target="dKNvi7SLN0fLF1UKLwEM-9">
          <mxGeometry width="50" height="50" relative="1" as="geometry">
            <mxPoint x="760" y="450" as="sourcePoint" />
            <mxPoint x="810" y="400" as="targetPoint" />
          </mxGeometry>
        </mxCell>
        <mxCell id="dKNvi7SLN0fLF1UKLwEM-25" value="pedido" style="rounded=0;whiteSpace=wrap;html=1;" vertex="1" parent="1">
          <mxGeometry x="410" y="270" width="120" height="60" as="geometry" />
        </mxCell>
        <mxCell id="dKNvi7SLN0fLF1UKLwEM-28" style="edgeStyle=none;rounded=0;orthogonalLoop=1;jettySize=auto;html=1;exitX=1;exitY=0.5;exitDx=0;exitDy=0;entryX=0;entryY=0.5;entryDx=0;entryDy=0;endArrow=none;endFill=0;" edge="1" parent="1" source="dKNvi7SLN0fLF1UKLwEM-26" target="dKNvi7SLN0fLF1UKLwEM-1">
          <mxGeometry relative="1" as="geometry" />
        </mxCell>
        <mxCell id="dKNvi7SLN0fLF1UKLwEM-29" style="edgeStyle=none;rounded=0;orthogonalLoop=1;jettySize=auto;html=1;exitX=0;exitY=0.5;exitDx=0;exitDy=0;entryX=1;entryY=0.5;entryDx=0;entryDy=0;endArrow=none;endFill=0;" edge="1" parent="1" source="dKNvi7SLN0fLF1UKLwEM-26" target="dKNvi7SLN0fLF1UKLwEM-25">
          <mxGeometry relative="1" as="geometry" />
        </mxCell>
        <mxCell id="dKNvi7SLN0fLF1UKLwEM-26" value="paga" style="rhombus;whiteSpace=wrap;html=1;" vertex="1" parent="1">
          <mxGeometry x="600" y="280" width="80" height="40" as="geometry" />
        </mxCell>
        <mxCell id="dKNvi7SLN0fLF1UKLwEM-27" style="edgeStyle=none;rounded=0;orthogonalLoop=1;jettySize=auto;html=1;exitX=0;exitY=0;exitDx=0;exitDy=0;endArrow=none;endFill=0;" edge="1" parent="1" source="dKNvi7SLN0fLF1UKLwEM-26" target="dKNvi7SLN0fLF1UKLwEM-26">
          <mxGeometry relative="1" as="geometry" />
        </mxCell>
        <mxCell id="dKNvi7SLN0fLF1UKLwEM-39" style="edgeStyle=none;rounded=0;orthogonalLoop=1;jettySize=auto;html=1;exitX=1;exitY=0.5;exitDx=0;exitDy=0;entryX=0;entryY=0;entryDx=0;entryDy=0;endArrow=none;endFill=0;" edge="1" parent="1" source="dKNvi7SLN0fLF1UKLwEM-30" target="dKNvi7SLN0fLF1UKLwEM-25">
          <mxGeometry relative="1" as="geometry" />
        </mxCell>
        <mxCell id="dKNvi7SLN0fLF1UKLwEM-30" value="preço" style="ellipse;whiteSpace=wrap;html=1;" vertex="1" parent="1">
          <mxGeometry x="320" y="240" width="56" height="20" as="geometry" />
        </mxCell>
        <mxCell id="dKNvi7SLN0fLF1UKLwEM-38" style="edgeStyle=none;rounded=0;orthogonalLoop=1;jettySize=auto;html=1;exitX=1;exitY=0.5;exitDx=0;exitDy=0;entryX=0;entryY=0.25;entryDx=0;entryDy=0;endArrow=none;endFill=0;" edge="1" parent="1" source="dKNvi7SLN0fLF1UKLwEM-31" target="dKNvi7SLN0fLF1UKLwEM-25">
          <mxGeometry relative="1" as="geometry" />
        </mxCell>
        <mxCell id="dKNvi7SLN0fLF1UKLwEM-31" value="quantidade" style="ellipse;whiteSpace=wrap;html=1;" vertex="1" parent="1">
          <mxGeometry x="282" y="260" width="80" height="30" as="geometry" />
        </mxCell>
        <mxCell id="dKNvi7SLN0fLF1UKLwEM-36" style="edgeStyle=none;rounded=0;orthogonalLoop=1;jettySize=auto;html=1;exitX=1;exitY=0.5;exitDx=0;exitDy=0;entryX=-0.008;entryY=0.656;entryDx=0;entryDy=0;endArrow=none;endFill=0;entryPerimeter=0;" edge="1" parent="1" source="dKNvi7SLN0fLF1UKLwEM-32" target="dKNvi7SLN0fLF1UKLwEM-25">
          <mxGeometry relative="1" as="geometry">
            <mxPoint x="410" y="295" as="targetPoint" />
          </mxGeometry>
        </mxCell>
        <mxCell id="dKNvi7SLN0fLF1UKLwEM-32" value="nome do medicamento" style="ellipse;whiteSpace=wrap;html=1;" vertex="1" parent="1">
          <mxGeometry x="270" y="290" width="104" height="40" as="geometry" />
        </mxCell>
        <mxCell id="dKNvi7SLN0fLF1UKLwEM-37" style="edgeStyle=none;rounded=0;orthogonalLoop=1;jettySize=auto;html=1;exitX=1;exitY=0.5;exitDx=0;exitDy=0;entryX=0;entryY=1;entryDx=0;entryDy=0;endArrow=none;endFill=0;" edge="1" parent="1" source="dKNvi7SLN0fLF1UKLwEM-33" target="dKNvi7SLN0fLF1UKLwEM-25">
          <mxGeometry relative="1" as="geometry">
            <mxPoint x="410" y="310" as="targetPoint" />
          </mxGeometry>
        </mxCell>
        <mxCell id="dKNvi7SLN0fLF1UKLwEM-33" value="data do pedido" style="ellipse;whiteSpace=wrap;html=1;" vertex="1" parent="1">
          <mxGeometry x="310" y="330" width="64" height="40" as="geometry" />
        </mxCell>
        <mxCell id="dKNvi7SLN0fLF1UKLwEM-40" style="edgeStyle=none;rounded=0;orthogonalLoop=1;jettySize=auto;html=1;exitX=1;exitY=0;exitDx=0;exitDy=0;endArrow=none;endFill=0;entryX=0.096;entryY=1.017;entryDx=0;entryDy=0;entryPerimeter=0;" edge="1" parent="1" source="dKNvi7SLN0fLF1UKLwEM-34" target="dKNvi7SLN0fLF1UKLwEM-25">
          <mxGeometry relative="1" as="geometry">
            <mxPoint x="430" y="330" as="targetPoint" />
          </mxGeometry>
        </mxCell>
        <mxCell id="dKNvi7SLN0fLF1UKLwEM-34" value="nome do cliente" style="ellipse;whiteSpace=wrap;html=1;" vertex="1" parent="1">
          <mxGeometry x="306" y="370" width="84" height="30" as="geometry" />
        </mxCell>
        <mxCell id="dKNvi7SLN0fLF1UKLwEM-46" style="edgeStyle=none;rounded=0;orthogonalLoop=1;jettySize=auto;html=1;exitX=0;exitY=0;exitDx=0;exitDy=0;entryX=0;entryY=0.75;entryDx=0;entryDy=0;endArrow=none;endFill=0;" edge="1" parent="1" source="dKNvi7SLN0fLF1UKLwEM-41" target="dKNvi7SLN0fLF1UKLwEM-44">
          <mxGeometry relative="1" as="geometry" />
        </mxCell>
        <mxCell id="dKNvi7SLN0fLF1UKLwEM-41" value="genérico" style="rounded=0;whiteSpace=wrap;html=1;" vertex="1" parent="1">
          <mxGeometry x="870" y="675" width="120" height="60" as="geometry" />
        </mxCell>
        <mxCell id="dKNvi7SLN0fLF1UKLwEM-45" style="edgeStyle=none;rounded=0;orthogonalLoop=1;jettySize=auto;html=1;exitX=1;exitY=0;exitDx=0;exitDy=0;entryX=0;entryY=0.25;entryDx=0;entryDy=0;endArrow=none;endFill=0;" edge="1" parent="1" source="dKNvi7SLN0fLF1UKLwEM-42" target="dKNvi7SLN0fLF1UKLwEM-44">
          <mxGeometry relative="1" as="geometry" />
        </mxCell>
        <mxCell id="dKNvi7SLN0fLF1UKLwEM-42" value="de marca" style="rounded=0;whiteSpace=wrap;html=1;" vertex="1" parent="1">
          <mxGeometry x="630" y="675" width="120" height="60" as="geometry" />
        </mxCell>
        <mxCell id="dKNvi7SLN0fLF1UKLwEM-74" style="edgeStyle=none;rounded=0;orthogonalLoop=1;jettySize=auto;html=1;exitX=0.5;exitY=0;exitDx=0;exitDy=0;entryX=0.5;entryY=1;entryDx=0;entryDy=0;endArrow=none;endFill=0;" edge="1" parent="1" source="dKNvi7SLN0fLF1UKLwEM-43" target="dKNvi7SLN0fLF1UKLwEM-73">
          <mxGeometry relative="1" as="geometry" />
        </mxCell>
        <mxCell id="dKNvi7SLN0fLF1UKLwEM-43" value="medicamento" style="rounded=0;whiteSpace=wrap;html=1;" vertex="1" parent="1">
          <mxGeometry x="750" y="500" width="120" height="60" as="geometry" />
        </mxCell>
        <mxCell id="dKNvi7SLN0fLF1UKLwEM-47" style="edgeStyle=none;rounded=0;orthogonalLoop=1;jettySize=auto;html=1;exitX=1;exitY=0.5;exitDx=0;exitDy=0;entryX=0.5;entryY=1;entryDx=0;entryDy=0;endArrow=none;endFill=0;" edge="1" parent="1" source="dKNvi7SLN0fLF1UKLwEM-44" target="dKNvi7SLN0fLF1UKLwEM-43">
          <mxGeometry relative="1" as="geometry" />
        </mxCell>
        <mxCell id="dKNvi7SLN0fLF1UKLwEM-44" value="" style="triangle;whiteSpace=wrap;html=1;rotation=-90;" vertex="1" parent="1">
          <mxGeometry x="790" y="580" width="40" height="60" as="geometry" />
        </mxCell>
        <mxCell id="dKNvi7SLN0fLF1UKLwEM-69" style="edgeStyle=none;rounded=0;orthogonalLoop=1;jettySize=auto;html=1;exitX=0;exitY=0.5;exitDx=0;exitDy=0;entryX=1;entryY=0.75;entryDx=0;entryDy=0;endArrow=none;endFill=0;" edge="1" parent="1" source="dKNvi7SLN0fLF1UKLwEM-49" target="dKNvi7SLN0fLF1UKLwEM-43">
          <mxGeometry relative="1" as="geometry" />
        </mxCell>
        <mxCell id="dKNvi7SLN0fLF1UKLwEM-49" value="nome do laboratório" style="ellipse;whiteSpace=wrap;html=1;" vertex="1" parent="1">
          <mxGeometry x="892.5" y="530" width="120" height="30" as="geometry" />
        </mxCell>
        <mxCell id="dKNvi7SLN0fLF1UKLwEM-68" style="edgeStyle=none;rounded=0;orthogonalLoop=1;jettySize=auto;html=1;exitX=0;exitY=0.5;exitDx=0;exitDy=0;entryX=0.853;entryY=0.989;entryDx=0;entryDy=0;entryPerimeter=0;endArrow=none;endFill=0;" edge="1" parent="1" source="dKNvi7SLN0fLF1UKLwEM-50" target="dKNvi7SLN0fLF1UKLwEM-43">
          <mxGeometry relative="1" as="geometry" />
        </mxCell>
        <mxCell id="dKNvi7SLN0fLF1UKLwEM-50" value="data de validade" style="ellipse;whiteSpace=wrap;html=1;" vertex="1" parent="1">
          <mxGeometry x="890" y="560" width="100" height="30" as="geometry" />
        </mxCell>
        <mxCell id="dKNvi7SLN0fLF1UKLwEM-56" style="edgeStyle=none;rounded=0;orthogonalLoop=1;jettySize=auto;html=1;exitX=0;exitY=0.5;exitDx=0;exitDy=0;entryX=1;entryY=0.5;entryDx=0;entryDy=0;endArrow=none;endFill=0;" edge="1" parent="1" source="dKNvi7SLN0fLF1UKLwEM-51" target="dKNvi7SLN0fLF1UKLwEM-41">
          <mxGeometry relative="1" as="geometry" />
        </mxCell>
        <mxCell id="dKNvi7SLN0fLF1UKLwEM-51" value="principio ativo" style="ellipse;whiteSpace=wrap;html=1;" vertex="1" parent="1">
          <mxGeometry x="1012.5" y="692.5" width="90" height="25" as="geometry" />
        </mxCell>
        <mxCell id="dKNvi7SLN0fLF1UKLwEM-71" style="edgeStyle=none;rounded=0;orthogonalLoop=1;jettySize=auto;html=1;exitX=1;exitY=0.5;exitDx=0;exitDy=0;entryX=-0.001;entryY=0.406;entryDx=0;entryDy=0;entryPerimeter=0;endArrow=none;endFill=0;" edge="1" parent="1" source="dKNvi7SLN0fLF1UKLwEM-59" target="dKNvi7SLN0fLF1UKLwEM-42">
          <mxGeometry relative="1" as="geometry" />
        </mxCell>
        <mxCell id="dKNvi7SLN0fLF1UKLwEM-59" value="cor da tarja" style="ellipse;whiteSpace=wrap;html=1;" vertex="1" parent="1">
          <mxGeometry x="515" y="680" width="90" height="30" as="geometry" />
        </mxCell>
        <mxCell id="dKNvi7SLN0fLF1UKLwEM-70" style="edgeStyle=none;rounded=0;orthogonalLoop=1;jettySize=auto;html=1;exitX=1;exitY=0.5;exitDx=0;exitDy=0;entryX=0;entryY=0.75;entryDx=0;entryDy=0;endArrow=none;endFill=0;" edge="1" parent="1" source="dKNvi7SLN0fLF1UKLwEM-60" target="dKNvi7SLN0fLF1UKLwEM-42">
          <mxGeometry relative="1" as="geometry" />
        </mxCell>
        <mxCell id="dKNvi7SLN0fLF1UKLwEM-60" value="nome do medicamento" style="ellipse;whiteSpace=wrap;html=1;" vertex="1" parent="1">
          <mxGeometry x="510" y="710" width="100" height="40" as="geometry" />
        </mxCell>
        <mxCell id="dKNvi7SLN0fLF1UKLwEM-63" style="edgeStyle=none;rounded=0;orthogonalLoop=1;jettySize=auto;html=1;exitX=0;exitY=0.5;exitDx=0;exitDy=0;endArrow=none;endFill=0;" edge="1" parent="1" source="dKNvi7SLN0fLF1UKLwEM-50" target="dKNvi7SLN0fLF1UKLwEM-50">
          <mxGeometry relative="1" as="geometry" />
        </mxCell>
        <mxCell id="dKNvi7SLN0fLF1UKLwEM-75" style="edgeStyle=none;rounded=0;orthogonalLoop=1;jettySize=auto;html=1;exitX=0.5;exitY=0;exitDx=0;exitDy=0;endArrow=none;endFill=0;entryX=0.5;entryY=1;entryDx=0;entryDy=0;" edge="1" parent="1" source="dKNvi7SLN0fLF1UKLwEM-73" target="dKNvi7SLN0fLF1UKLwEM-1">
          <mxGeometry relative="1" as="geometry" />
        </mxCell>
        <mxCell id="dKNvi7SLN0fLF1UKLwEM-73" value="inicia a solicitação&amp;nbsp;" style="rhombus;whiteSpace=wrap;html=1;" vertex="1" parent="1">
          <mxGeometry x="760" y="390" width="100" height="60" as="geometry" />
        </mxCell>
        <mxCell id="dKNvi7SLN0fLF1UKLwEM-78" style="edgeStyle=none;rounded=0;orthogonalLoop=1;jettySize=auto;html=1;exitX=1;exitY=0.5;exitDx=0;exitDy=0;entryX=0;entryY=0.5;entryDx=0;entryDy=0;endArrow=none;endFill=0;" edge="1" parent="1" source="dKNvi7SLN0fLF1UKLwEM-77" target="dKNvi7SLN0fLF1UKLwEM-43">
          <mxGeometry relative="1" as="geometry" />
        </mxCell>
        <mxCell id="dKNvi7SLN0fLF1UKLwEM-79" style="edgeStyle=none;rounded=0;orthogonalLoop=1;jettySize=auto;html=1;exitX=0.5;exitY=0;exitDx=0;exitDy=0;entryX=0.5;entryY=1;entryDx=0;entryDy=0;endArrow=none;endFill=0;" edge="1" parent="1" source="dKNvi7SLN0fLF1UKLwEM-77" target="dKNvi7SLN0fLF1UKLwEM-25">
          <mxGeometry relative="1" as="geometry" />
        </mxCell>
        <mxCell id="dKNvi7SLN0fLF1UKLwEM-77" value="finaliza a solicitação" style="rhombus;whiteSpace=wrap;html=1;" vertex="1" parent="1">
          <mxGeometry x="420" y="500" width="100" height="60" as="geometry" />
        </mxCell>
      </root>
    </mxGraphModel>
  </diagram>
</mxfile>
